<svg width="51" height="51" viewBox="0 0 51 51" fill="none" xmlns="http://www.w3.org/2000/svg">
<path d="M4.32 27.992V21.848H12.192L18.912 22.904L19.392 21.752L13.92 17.72L8.352 12.152L12.672 7.832L18.24 13.304L22.272 18.872L23.424 18.392L22.368 11.576V3.8H28.512V11.576L27.456 18.392L28.608 18.872L32.64 13.304L38.208 7.832L42.528 12.152L37.056 17.72L31.488 21.752L31.968 22.904L38.688 21.848H46.56V27.992H38.688L31.968 26.936L31.488 28.088L37.056 32.12L42.528 37.688L38.208 42.008L32.64 36.44L28.608 30.872L27.456 31.352L28.512 38.168V45.944H22.368V38.168L23.424 31.352L22.272 30.872L18.24 36.44L12.672 42.008L8.352 37.688L13.92 32.12L19.392 28.088L18.912 26.936L12.192 27.992H4.32Z" fill="#FF8A00"/>
</svg>
