<svg width="106" height="106" viewBox="0 0 106 106" fill="none" xmlns="http://www.w3.org/2000/svg">
<path d="M13.052 33.9443L11.5844 33.0973L10.5528 28.0822C10.448 27.5413 10.2425 27.1807 9.93643 26.9962C9.32003 26.6398 8.80007 26.8285 8.38075 27.5539C8.20464 27.86 8.13755 28.1619 8.18367 28.4554C8.2256 28.7532 8.38075 29.0089 8.64912 29.2312L7.70984 30.8665C7.04731 30.3675 6.62799 29.7637 6.44769 29.0509C6.26738 28.338 6.42253 27.5581 6.91313 26.7069C7.44148 25.7927 8.04949 25.2183 8.73298 24.9918C9.42067 24.7654 10.1084 24.8493 10.8002 25.2476C11.5005 25.6502 11.9576 26.3714 12.1714 27.4113L12.8717 30.8623L14.8509 27.4281L16.3185 28.2751L13.052 33.9443Z" fill="#FF8A00"/>
<path d="M16.2824 28.166L11.5273 20.1151L13.0159 18.3246L21.7965 21.5449L20.5469 23.0461L18.9283 22.4339L16.6347 25.1888L17.5278 26.669L16.2824 28.166ZM15.7247 23.6248L17.2301 21.8175L13.9384 20.5721L13.9007 20.6182L15.7247 23.6248Z" fill="#FF8A00"/>
<path d="M27.0345 17.5154C26.0114 18.2702 24.9589 18.5511 23.8854 18.3541C22.812 18.157 21.8517 17.4861 21.0047 16.3413C20.1577 15.1966 19.797 14.0812 19.9228 12.9951C20.0486 11.9091 20.6273 10.9908 21.6546 10.2318C22.5059 9.60285 23.3361 9.30932 24.1538 9.34706C24.9673 9.3848 25.7388 9.6951 26.4558 10.278L24.8918 11.4353C24.1286 11.0076 23.3864 11.0579 22.6652 11.5946C22.1117 12.0014 21.814 12.5255 21.772 13.1629C21.7301 13.8002 21.9817 14.4837 22.5226 15.2175C23.0635 15.9514 23.6464 16.3916 24.267 16.5384C24.8876 16.6852 25.4746 16.5552 26.0281 16.1442C26.7494 15.6117 27.0177 14.9156 26.8332 14.0602L28.3973 12.9029C28.7411 13.7625 28.8124 14.5886 28.6112 15.3811C28.4099 16.1778 27.8857 16.8864 27.0345 17.5154Z" fill="#FF8A00"/>
<path d="M36.4885 10.8522C36.1531 11.8921 35.4067 12.6805 34.2535 13.2256C33.1004 13.7707 32.0144 13.8378 31.0038 13.4352C29.9891 13.0327 29.1798 12.1857 28.5718 10.8983C27.9637 9.61103 27.8296 8.44532 28.1608 7.40541C28.4963 6.36549 29.2385 5.57717 30.3958 5.03206C31.5489 4.48694 32.635 4.41984 33.6497 4.8182C34.6645 5.22075 35.478 6.06358 36.086 7.35509C36.6898 8.65079 36.8282 9.81231 36.4885 10.8522ZM31.7292 11.7328C32.3079 11.997 32.9117 11.9844 33.5323 11.6909C34.1529 11.3973 34.5471 10.9445 34.7106 10.3281C34.8741 9.71167 34.7609 8.99044 34.371 8.16437C33.981 7.33831 33.4988 6.7932 32.9201 6.52484C32.3414 6.26066 31.7418 6.27324 31.1212 6.56676C30.5006 6.86029 30.1065 7.31316 29.9429 7.92956C29.7794 8.54596 29.8926 9.26719 30.2784 10.0933C30.6642 10.9193 31.1506 11.4686 31.7292 11.7328Z" fill="#FF8A00"/>
<path d="M38.8716 11.0576L36.8086 2.4951L39.1987 1.92062L43.849 7.01117L43.9161 6.9944L42.503 1.12392L44.3354 0.683628L46.3985 9.24615L44.0167 9.82062L39.3623 4.73007L39.3035 4.74265L40.7167 10.6131L38.8716 11.0576Z" fill="#FF8A00"/>
<path d="M49.7199 9.03613L49.3467 1.93704L46.7092 2.07542L46.6211 0.377169L53.7789 -0.000217074L53.8669 1.69803L51.2294 1.8364L51.6026 8.9313L49.7199 9.03613Z" fill="#FF8A00"/>
<path d="M55.0508 8.96112L55.6336 0.172158L57.5206 0.297955L56.9335 9.08691L55.0508 8.96112Z" fill="#FF8A00"/>
<path d="M58.3984 9.07817L60.2183 0.461136L62.621 0.968516L64.6295 7.56442L64.6966 7.577L65.942 1.66878L67.787 2.05875L65.9672 10.6758L63.5687 10.1684L61.5517 3.57249L61.493 3.55991L60.2476 9.46814L58.3984 9.07817Z" fill="#FF8A00"/>
<path d="M67.2617 11.1702L70.6372 3.03543L76.1597 5.32492L75.5098 6.89737L71.7359 5.3333L71.0146 7.07349L74.5537 8.54111L73.9499 9.99195L70.4108 8.52433L69.6602 10.3274L73.5515 11.9418L72.9016 13.5059L67.2617 11.1702Z" fill="#FF8A00"/>
<path d="M73.8477 13.9464L78.6531 6.56635L80.7119 7.90818L80.2046 14.785L80.2591 14.8228L83.5549 9.76158L85.1358 10.7889L80.3304 18.1689L78.2757 16.8313L78.7747 9.95027L78.7244 9.91672L75.4285 14.9779L73.8477 13.9464Z" fill="#FF8A00"/>
<path d="M82.7773 20.4423L87.675 15.293L85.7629 13.4732L86.937 12.2404L92.1324 17.18L90.9583 18.4128L89.0462 16.5929L84.1485 21.7422L82.7773 20.4423Z" fill="#FF8A00"/>
<path d="M85.375 22.7229L94.2688 19.8296L95.6903 21.6704L90.6417 29.541L89.4466 27.9937L90.3943 26.5471L88.2012 23.7083L86.5617 24.2576L85.375 22.7229ZM89.9288 23.1631L91.3671 25.0249L93.3002 22.0813L93.2624 22.031L89.9288 23.1631Z" fill="#FF8A00"/>
<path d="M90.7812 30.0112L98.5513 25.8641L99.4402 27.533L93.163 30.8792L95.0583 34.4308L93.5613 35.2275L90.7812 30.0112Z" fill="#FF8A00"/>
<path d="M95.2969 39.5417L104.572 40.7577L105.063 43.0346L97.1125 47.9658L96.7016 46.0579L98.1818 45.1606L97.427 41.655L95.712 41.4454L95.2969 39.5417ZM99.2175 41.8983L99.7123 44.1961L102.723 42.3721L102.71 42.3134L99.2175 41.8983Z" fill="#FF8A00"/>
<path d="M97.0703 48.4189L105.876 48.1337L105.998 51.9076C106.027 52.7966 105.784 53.5178 105.276 54.0755C104.765 54.6332 104.073 54.9267 103.205 54.9519C102.794 54.9645 102.417 54.9142 102.073 54.8009C101.729 54.6877 101.456 54.5452 101.255 54.3774C101.054 54.2097 100.886 54.0336 100.744 53.8575C100.601 53.6814 100.505 53.5304 100.454 53.4046L100.375 53.2159L97.3009 55.4551L97.2338 53.3165L100.19 51.2074L100.157 50.2052L97.1374 50.3016L97.0703 48.4189ZM101.846 50.1591L101.905 51.916C101.918 52.2682 102.031 52.5534 102.253 52.7672C102.475 52.9811 102.769 53.0859 103.138 53.0733C103.507 53.0608 103.796 52.9392 104.002 52.7085C104.207 52.4779 104.304 52.1886 104.295 51.8363L104.236 50.0794L101.846 50.1591Z" fill="#FF8A00"/>
<path d="M96.5409 59.9877C96.7338 58.7298 97.2789 57.7905 98.1763 57.1699C99.0778 56.5493 100.231 56.348 101.64 56.5619C103.049 56.7757 104.093 57.3083 104.768 58.1679C105.443 59.0233 105.686 60.0842 105.493 61.3463C105.334 62.3904 104.952 63.1871 104.349 63.7364C103.745 64.2858 102.982 64.6086 102.059 64.7051L102.353 62.7804C103.196 62.5456 103.686 61.9837 103.82 61.0947C103.925 60.4154 103.766 59.8326 103.346 59.3546C102.927 58.8765 102.265 58.5662 101.363 58.4279C100.462 58.2895 99.7362 58.3901 99.1952 58.7214C98.6543 59.0526 98.3272 59.5642 98.2266 60.2435C98.0924 61.1283 98.3943 61.8118 99.1281 62.2856L98.8346 64.2103C97.9834 63.8455 97.3502 63.3129 96.9351 62.6085C96.52 61.904 96.3816 61.036 96.5409 59.9877Z" fill="#FF8A00"/>
<path d="M95.8409 64.6133L104.131 67.5905L103.489 69.3726L100.172 68.1818L98.9816 71.4944L102.298 72.6853L101.661 74.459L93.3711 71.4818L94.0085 69.7081L97.384 70.9199L98.5749 67.6073L95.1993 66.3955L95.8409 64.6133Z" fill="#FF8A00"/>
<path d="M92.6147 72.7431L100.418 76.8315L99.5418 78.5088L91.7383 74.4204L92.6147 72.7431Z" fill="#FF8A00"/>
<path d="M89.9563 77.369L95.81 81.3986L97.307 79.2224L98.7075 80.1868L94.6401 86.0908L93.2396 85.1264L94.7365 82.9501L88.8828 78.9204L89.9563 77.369Z" fill="#FF8A00"/>
<path d="M86.895 81.6166L93.2477 87.7177L89.109 92.0283L87.8804 90.85L90.7108 87.9022L89.3522 86.5981L86.6979 89.3614L85.5616 88.2712L88.2159 85.5079L86.8069 84.1535L83.8885 87.1936L82.6641 86.0195L86.895 81.6166Z" fill="#FF8A00"/>
<path d="M78.7516 88.8746C79.7789 88.1241 80.8314 87.8515 81.9048 88.0528C82.9783 88.2582 83.9343 88.9334 84.773 90.0865C85.6116 91.2396 85.9639 92.355 85.8339 93.4369C85.6997 94.5187 85.1168 95.437 84.0853 96.1876C83.2299 96.8082 82.3954 97.0975 81.582 97.0556C80.7685 97.0095 80.0011 96.695 79.2841 96.1079L80.8565 94.9632C81.6197 95.3951 82.3619 95.349 83.0873 94.8206C83.645 94.4139 83.9427 93.8939 83.9889 93.2565C84.035 92.6192 83.7876 91.9315 83.2509 91.1935C82.7141 90.4555 82.1355 90.011 81.5149 89.8601C80.8943 89.7091 80.3072 89.8349 79.7495 90.2416C79.0241 90.77 78.7515 91.4619 78.9319 92.3215L77.3594 93.4662C77.0198 92.6024 76.9527 91.7763 77.1623 90.988C77.3678 90.2039 77.8961 89.4952 78.7516 88.8746Z" fill="#FF8A00"/>
<path d="M73.3735 92.3469L76.5184 98.7206L78.8875 97.5507L79.6381 99.077L73.2099 102.247L72.4593 100.721L74.8285 99.5508L71.6836 93.1772L73.3735 92.3469Z" fill="#FF8A00"/>
<path d="M62.8051 97.2237C63.2538 96.3767 64.0296 95.798 65.124 95.4835C66.2184 95.169 67.1828 95.2529 68.0173 95.7351C68.8475 96.2173 69.4304 97.0392 69.7659 98.2091L71.1496 103.052L69.3381 103.568L67.9544 98.7248C67.7615 98.0455 67.4512 97.5717 67.0277 97.295C66.6042 97.0182 66.1262 96.9595 65.5936 97.1105C65.0611 97.2614 64.6879 97.5675 64.474 98.0246C64.2602 98.4816 64.2476 99.0477 64.4405 99.727L65.8284 104.57L64.0128 105.086L62.629 100.243C62.2978 99.0771 62.3565 98.0707 62.8051 97.2237Z" fill="#FF8A00"/>
<path d="M60.3043 96.817L61.1052 105.589L57.3439 105.933C56.4591 106.013 55.7253 105.816 55.1383 105.338C54.5512 104.86 54.22 104.189 54.1403 103.321C54.1025 102.914 54.1319 102.532 54.2242 102.18C54.3164 101.828 54.4422 101.547 54.6015 101.341C54.7609 101.132 54.9202 100.951 55.088 100.801C55.2557 100.645 55.3982 100.545 55.5198 100.486L55.7044 100.394L53.2891 97.4543L55.4192 97.2615L57.7003 100.088L58.6983 99.9954L58.4257 96.9847L60.3043 96.817ZM58.8493 101.685L57.1007 101.845C56.7485 101.878 56.4717 102.008 56.2704 102.243C56.0692 102.474 55.9811 102.776 56.0146 103.145C56.0482 103.514 56.1866 103.794 56.4256 103.987C56.6688 104.18 56.9623 104.26 57.3145 104.226L59.0631 104.067L58.8493 101.685Z" fill="#FF8A00"/>
<path d="M53.3999 97.5004L49.5002 106L47.1814 105.799L44.8164 96.7498L46.7621 96.9217L47.1814 98.599L50.754 98.9135L51.4584 97.3368L53.3999 97.5004ZM49.9908 100.549L47.6468 100.343L48.5022 103.761L48.5651 103.765L49.9908 100.549Z" fill="#FF8A00"/>
<path d="M44.3936 96.5358L42.1712 105.061L40.3388 104.583L42.1335 97.7015L38.2422 96.6867L38.6699 95.0472L44.3936 96.5358Z" fill="#FF8A00"/>
<path d="M34.3162 93.3868L27.1333 99.3789L25.1289 98.1964L26.8942 89.0133L28.5757 90.0071L28.2319 91.7012L31.3223 93.521L32.6389 92.4014L34.3162 93.3868ZM29.9217 94.6699L27.8964 93.4749L27.1962 96.9259L27.2507 96.9552L29.9217 94.6699Z" fill="#FF8A00"/>
<path d="M25.6325 87.9779L21.3554 96.0205L19.9214 94.6955L23.0579 89.2736L23.0117 89.2317L17.7535 92.6869L16.2733 91.3199L19.3175 85.8184L19.2672 85.7723L14.1096 89.3114L12.6797 87.9905L20.3742 83.1054L21.8922 84.5102L18.8563 90.0116L24.1104 86.5606L25.6325 87.9779Z" fill="#FF8A00"/>
<path d="M19.2397 81.9228L10.2202 84.3926L8.88672 82.4847L14.3043 74.8614L15.4239 76.4632L14.4092 77.8638L16.4638 80.8032L18.1285 80.3294L19.2397 81.9228ZM14.7111 81.2686L13.3651 79.3398L11.2936 82.187L11.3272 82.2373L14.7111 81.2686Z" fill="#FF8A00"/>
<path d="M14.1714 74.4374L6.1624 78.1064L4.58995 74.6722C4.22095 73.8629 4.16225 73.104 4.41803 72.3911C4.67382 71.6783 5.19797 71.1415 5.99048 70.7809C6.36368 70.609 6.72849 70.5126 7.0933 70.4832C7.4581 70.4538 7.76001 70.479 8.01161 70.5587C8.2632 70.6383 8.48544 70.7306 8.68252 70.8396C8.88379 70.9445 9.03056 71.0493 9.12281 71.1457L9.26957 71.2883L11.2404 68.0344L12.1293 69.9758L10.2214 73.0662L10.6366 73.9761L13.3831 72.7182L14.1714 74.4374ZM9.09345 74.6806L8.36384 73.083C8.21707 72.7643 7.99903 72.5463 7.71389 72.433C7.42875 72.3198 7.11426 72.3408 6.7788 72.4917C6.44335 72.6469 6.22111 72.8691 6.12047 73.1585C6.01984 73.452 6.0408 73.7581 6.18756 74.0768L6.92137 75.6744L9.09345 74.6806Z" fill="#FF8A00"/>
<path d="M10.9914 67.2546L2.44567 69.3848L1.6238 66.0889C1.32609 64.8938 1.46866 63.8497 2.04732 62.9524C2.63017 62.0592 3.58622 61.4428 4.91966 61.1116C6.2531 60.7803 7.38946 60.8684 8.32035 61.3883C9.25124 61.9041 9.86764 62.7595 10.1654 63.9588L10.9914 67.2546ZM8.88643 65.8289L8.5384 64.4284C8.38325 63.8078 8.03102 63.3549 7.47752 63.0656C6.92401 62.7763 6.22375 62.7385 5.37672 62.9482C4.52969 63.1579 3.93007 63.5227 3.58203 64.0342C3.2298 64.55 3.13336 65.1161 3.28851 65.7367L3.63654 67.1372L8.88643 65.8289Z" fill="#FF8A00"/>
<path d="M9.04558 56.0212C9.10848 57.0276 8.92398 57.8662 8.49208 58.5413C8.05598 59.2164 7.40184 59.6274 6.52127 59.7783L6.39967 57.8956C6.7477 57.8075 7.01188 57.6062 7.19218 57.2959C7.37249 56.9856 7.44797 56.5957 7.41862 56.126C7.34733 55.04 6.95736 54.52 6.24871 54.5662C5.98035 54.5829 5.77069 54.7171 5.62392 54.9729C5.47716 55.2245 5.3891 55.5348 5.35556 55.8996C5.32201 56.2644 5.2675 56.6628 5.17944 57.0947C5.09558 57.5308 4.98656 57.9291 4.86076 58.3023C4.73497 58.6713 4.49595 58.99 4.14792 59.2542C3.79988 59.5225 3.35121 59.6735 2.79771 59.707C1.97584 59.7615 1.3217 59.4974 0.835286 58.9145C0.348874 58.3317 0.072123 57.5643 0.0134181 56.6083C-0.0536732 55.5851 0.130828 54.7758 0.566921 54.1762C1.00301 53.5766 1.60264 53.2034 2.37 53.0482L2.4916 54.931C2.20227 55.0148 1.98003 55.1868 1.82908 55.4467C1.67812 55.7067 1.61522 56.038 1.64038 56.4363C1.66973 56.8808 1.78295 57.2163 1.97584 57.4427C2.17292 57.6691 2.40354 57.774 2.67191 57.753C2.94866 57.7362 3.16671 57.5979 3.32605 57.3463C3.48539 57.0905 3.58603 56.7844 3.62796 56.4196C3.67408 56.0548 3.73698 55.6564 3.82923 55.2203C3.91729 54.7842 4.02631 54.3859 4.14792 54.0169C4.26952 53.6479 4.50015 53.3292 4.8356 53.065C5.17106 52.8008 5.59877 52.6499 6.11872 52.6163C6.90704 52.566 7.57376 52.8386 8.11888 53.4424C8.664 54.042 8.97429 54.9016 9.04558 56.0212Z" fill="#FF8A00"/>
<ellipse cx="6.22685" cy="41.486" rx="2.42573" ry="2.42574" transform="rotate(-151.262 6.22685 41.486)" fill="#FF8A00"/>
<g clip-path="url(#clip0_3167_995)">
<path d="M74 45.4811C73.8356 44.7541 73.7053 44.016 73.5004 43.3014C73.1585 42.1055 72.581 41.8174 71.4316 42.2372C69.7727 42.8436 68.2979 43.738 67.1879 45.1427C66.6379 44.3399 66.0944 43.5616 65.575 42.7654C65.5148 42.6738 65.5652 42.4784 65.6123 42.3489C65.9662 41.3808 66.2314 40.397 66.3026 39.3586C66.4308 37.4748 65.8511 35.8534 64.6163 34.4643C63.7813 33.5253 62.7952 32.7849 61.6885 32.2132C60.9226 31.8179 60.2487 32.0312 59.8608 32.7983C59.0533 34.3973 58.5964 36.079 58.7432 37.898C58.8539 39.267 59.4094 40.4361 60.2685 41.4701C60.9916 42.3411 61.8682 43.0189 62.8182 43.614C63.0899 43.7849 63.3529 44.0026 63.5534 44.2539C69.6555 51.8727 65.9344 63.5996 56.6022 66.1757C48.8916 68.304 41.1076 63.3003 39.7018 55.3164C38.9885 51.263 39.8957 47.6183 42.3633 44.3711C42.5649 44.1054 42.8399 43.8742 43.1237 43.7011C44.271 42.9977 45.3042 42.1658 46.1019 41.0592C47.4672 39.1654 47.6019 37.0773 46.9664 34.9021C46.7462 34.1483 46.4262 33.4181 46.0855 32.7101C45.782 32.0792 45.1168 31.8324 44.5208 32.1283C42.6318 33.0685 41.0649 34.3761 40.1993 36.3894C39.4575 38.1146 39.5791 39.8856 40.2004 41.5974C40.4776 42.3601 40.4622 42.9039 39.9188 43.5158C39.4958 43.9937 39.2076 44.5967 38.8439 45.1706C37.9771 44.0473 36.8858 43.2232 35.6476 42.6013C35.1601 42.3567 34.6527 42.1434 34.1367 41.9715C33.557 41.7783 32.9522 42.0173 32.7221 42.5767C31.7863 44.858 31.5157 48.2514 33.4146 50.5316C34.3065 51.6025 35.4088 52.3852 36.6437 52.9793C36.899 53.1021 37.0009 53.2417 37.0195 53.5354C37.0633 54.2277 37.1597 54.9166 37.2342 55.6078C37.2474 55.7284 37.254 55.8501 37.2671 56.0121C35.8756 55.7552 34.5234 55.8245 33.1779 56.1036C32.2246 56.3013 31.8247 56.9545 32.0975 57.9148C32.6421 59.8343 33.4924 61.5751 35.0527 62.8593C36.3708 63.9435 37.9289 64.2819 39.5824 64.2439C40.0996 64.2316 40.6145 64.14 41.1306 64.0987C41.238 64.0898 41.3815 64.1088 41.4539 64.1758C42.0182 64.6995 42.5693 65.2388 43.127 65.7759C43.1215 65.7848 43.1117 65.8217 43.092 65.8284C40.9542 66.5486 39.6667 68.132 38.8756 70.1911C38.6236 70.8466 38.4549 71.54 38.2938 72.2267C38.1426 72.871 38.4779 73.5276 39.1003 73.6739C41.5415 74.2445 43.9127 74.1808 46.0153 72.5729C47.1867 71.6773 47.8923 70.4211 48.4062 69.0465C48.4632 68.8924 48.5212 68.7395 48.587 68.563C51.5542 69.3737 54.505 69.3737 57.4579 68.5496C57.6584 69.0276 57.8414 69.5044 58.0562 69.9655C59.2724 72.5762 61.3434 73.8648 64.1374 73.962C64.9231 73.9888 65.7186 73.8972 66.5009 73.7945C67.4366 73.6716 67.853 73.0642 67.6788 72.1162C67.3446 70.3039 66.6565 68.6613 65.3789 67.3157C64.6809 66.581 63.8273 66.1042 62.8872 65.7726C63.4362 65.2455 63.961 64.7173 64.5166 64.2283C64.6294 64.1289 64.8705 64.1333 65.0425 64.159C66.6094 64.3913 68.1478 64.3388 69.627 63.6967C71.3933 62.9307 72.4627 61.4813 73.2407 59.7751C73.5365 59.1263 73.7491 58.4385 73.9989 57.7685C73.9989 57.5173 73.9989 57.2671 73.9989 57.0159C73.7217 56.4822 73.3141 56.1695 72.7049 56.0768C71.6771 55.9205 70.6526 55.7876 69.6127 55.9216C69.3344 55.9573 69.0539 55.9808 68.7701 56.0098C68.8556 55.0852 68.9323 54.1919 69.032 53.2997C69.0419 53.2149 69.1876 53.1289 69.2873 53.0742C69.73 52.8285 70.1913 52.6175 70.6208 52.3517C72.1811 51.3881 73.3404 50.095 73.7918 48.2403C73.8663 47.9343 73.9299 47.6261 73.9978 47.319C74 46.7071 74 46.0941 74 45.4811ZM68.8808 50.3987C68.7745 49.8862 68.6452 49.377 68.5696 48.86C68.5247 48.5552 68.5028 48.2224 68.5751 47.9287C68.9454 46.4224 70.0872 45.662 71.3385 44.9987C72.0956 47.0499 70.8027 49.8717 68.8808 50.3987ZM46.1096 68.0315C45.3042 70.5618 43.63 71.6516 41.1065 71.4306C41.387 69.3089 43.9094 67.5826 46.1096 68.0315ZM42.6241 40.9922C41.6982 38.7265 42.1825 36.5949 44.4353 35.1366C45.3864 37.41 44.6676 39.7349 42.6241 40.9922ZM61.5767 35.1176C63.7934 36.5982 64.338 38.5814 63.4406 40.9576C61.2469 39.5629 60.71 37.5909 61.5767 35.1176ZM34.6593 44.9384C35.8109 45.4364 36.9055 46.4492 37.277 47.4519C37.4216 47.8405 37.5158 48.2861 37.4852 48.6936C37.4435 49.2542 37.2616 49.8036 37.14 50.3563C34.8357 49.2173 34.0632 47.1806 34.6593 44.9384ZM64.9121 71.435C62.5399 71.7276 60.0614 69.97 59.9858 67.96C62.2879 67.6362 64.51 69.1917 64.9121 71.435ZM71.0942 58.4273C70.2373 60.7432 68.6518 61.9325 66.5097 61.7102C66.9238 60.8627 67.3358 60.0051 67.7665 59.1587C67.8278 59.0381 67.9735 58.9421 68.1017 58.8807C69.0419 58.4351 70.0368 58.3458 71.0942 58.4273ZM39.4794 61.6723C37.5761 61.9872 35.3891 60.435 34.9409 58.4005C36.0377 58.3168 37.0885 58.4229 38.0758 58.9388C38.1338 58.9689 38.1941 59.0191 38.2226 59.0761C38.6455 59.9415 39.0619 60.8091 39.4794 61.6723Z" fill="#FF8A00"/>
<path d="M52.9884 41.6338C52.4471 41.6606 52.0833 41.942 51.8434 42.4344C51.0676 44.0267 50.2765 45.6124 49.5062 47.2069C49.3692 47.4917 49.2235 47.6379 48.8816 47.6848C47.1394 47.9272 45.4038 48.2197 43.6649 48.4855C43.1291 48.567 42.7544 48.8327 42.578 49.3631C42.3994 49.9047 42.5823 50.3458 42.9582 50.7243C44.2226 51.9962 45.4871 53.2669 46.7592 54.5309C46.94 54.7107 47.0069 54.867 46.9597 55.1417C46.654 56.9205 46.3867 58.706 46.0843 60.486C45.9911 61.0365 46.1106 61.4876 46.5357 61.8248C46.9795 62.1777 47.4594 62.1654 47.9547 61.8996C49.5128 61.0666 51.0807 60.2526 52.6356 59.414C52.8931 59.2755 53.087 59.2644 53.35 59.4062C54.8928 60.2392 56.4487 61.0443 57.9936 61.8717C58.4966 62.1408 58.9842 62.2 59.4521 61.8382C59.9112 61.482 60.0109 61.0063 59.9101 60.4257C59.6011 58.6469 59.3239 56.8636 59.0543 55.0781C59.0313 54.9229 59.1014 54.6973 59.2099 54.5868C60.4744 53.2959 61.7531 52.0185 63.0307 50.7422C63.3736 50.3994 63.5665 50.0019 63.4723 49.5061C63.3682 48.9634 62.954 48.5815 62.4039 48.4966C60.6245 48.2208 58.8461 47.9339 57.0634 47.6815C56.7697 47.6402 56.6415 47.5073 56.5254 47.2672C55.7387 45.6492 54.941 44.0379 54.1531 42.4199C53.911 41.9241 53.5395 41.6528 52.9884 41.6338ZM57.0897 58.533C56.9144 58.4481 56.7916 58.3923 56.6722 58.3297C55.6784 57.806 54.6813 57.2879 53.6951 56.7508C53.2338 56.4996 52.7956 56.4862 52.3332 56.7374C51.5508 57.1617 50.7608 57.5715 49.973 57.9869C49.6399 58.1622 49.3057 58.3342 48.9134 58.5386C49.1216 57.26 49.3079 56.054 49.5193 54.8525C49.6256 54.2462 49.527 53.7426 49.0646 53.3004C48.2472 52.5199 47.4616 51.7047 46.6639 50.9019C46.585 50.8226 46.5204 50.7299 46.4174 50.6071C47.6774 50.4184 48.863 50.2297 50.053 50.0666C50.66 49.9829 51.0764 49.6914 51.3426 49.1175C51.8204 48.0879 52.3343 47.0752 52.8361 46.0568C52.881 45.9663 52.9446 45.8859 53.0246 45.762C53.5998 46.9311 54.1597 48.0422 54.6933 49.1666C54.9355 49.678 55.3026 49.9661 55.8482 50.0432C56.4695 50.1314 57.0897 50.2297 57.7099 50.3246C58.3202 50.4184 58.9305 50.5144 59.4926 50.6026C58.6522 51.4948 57.8402 52.3971 56.9823 53.2513C56.51 53.7214 56.372 54.2272 56.4892 54.8715C56.704 56.0596 56.8826 57.2544 57.0897 58.533Z" fill="#FF8A00"/>
</g>
<defs>
<clipPath id="clip0_3167_995">
<rect width="42" height="42" fill="white" transform="matrix(-1 0 0 1 74 32.001)"/>
</clipPath>
</defs>
</svg>
