<svg width="580" height="714" viewBox="0 0 580 714" fill="none" xmlns="http://www.w3.org/2000/svg">
<path fill-rule="evenodd" clip-rule="evenodd" d="M477 192C465 299 378 366 261 366C218 366 183 360 157 349C130 357 119 367 119 384C119 405 135 406 169 406H384C489 406 558 475 558 557C558 656 484 712 384 712H127C39 712 2 673 2 618C2 581 32 550 71 538V492C36 483 14 460 14 425C14 376 47 347 96 331V286C59 259 39 230 39 182C39 77 130 2 247 2C334 2 406 38 430 107H473C481 35 503 17 552 17H578V125H523C491 125 484 132 478 183L477 192ZM479.987 183.228C479.987 183.23 479.987 183.232 479.986 183.234L478.988 192.221L478.988 192.223C466.852 300.433 378.806 368 261 368C218.202 368 183.143 362.082 156.886 351.121C143.851 355.04 134.916 359.375 129.228 364.598C123.548 369.814 121 376.014 121 384C121 389.011 121.956 392.578 123.695 395.188C125.421 397.775 128.069 399.649 131.908 400.986C135.781 402.336 140.759 403.102 146.978 403.52C153.183 403.937 160.496 404 169 404H384C489.913 404 560 473.713 560 557C560 607.04 541.277 646.364 509.796 673.148C478.354 699.9 434.357 714 384 714H127C82.7414 714 50.9698 704.197 30.2309 687.171C9.43168 670.095 0 645.977 0 618C0 580.292 30.1496 549.006 69 536.532V493.54C51.8859 488.897 37.7834 480.861 27.8719 469.569C17.652 457.926 12 442.947 12 425C12 400.001 20.4372 380.01 35.1641 364.259C49.574 348.847 69.9133 337.588 94 329.554V287.014C75.7661 273.603 61.563 259.578 51.8941 242.877C42.0671 225.903 37 206.297 37 182C37 75.6087 129.206 0 247 0C333.893 0 406.562 35.756 431.414 105H471.214C475.272 69.9415 482.788 47.403 495.664 33.634C508.856 19.5276 527.302 15 552 15H580V127H523C506.986 127 498.166 128.807 492.312 136.124C489.316 139.869 486.968 145.214 485 152.917C483.035 160.611 481.484 170.502 479.987 183.228ZM322.484 248.188C337.423 233.735 346 213.028 346 188C346 137.044 310.836 100 260 100C209.164 100 174 137.044 174 188C174 213.028 182.577 233.735 197.516 248.188C212.46 262.646 233.933 271 260 271C286.067 271 307.54 262.646 322.484 248.188ZM126.817 595.62C135.371 603.105 147.364 607 161 607H356C378.289 607 393.243 602.533 402.604 594.831C411.886 587.194 416 576.097 416 562C416 548.979 411.685 538.366 402.263 530.946C392.758 523.461 377.775 519 356 519H137.574C125.205 526.854 113 544.055 113 562C113 576.991 118.3 588.167 126.817 595.62ZM137 517C124 525 111 543 111 562C111 593 133 609 161 609H356C401 609 418 591 418 562C418 535 400 517 356 517H137ZM260 273C313 273 348 239 348 188C348 136 312 98 260 98C208 98 172 136 172 188C172 239 207 273 260 273Z" fill="#F0F0F0"/>
</svg>
