<svg width="403" height="429" viewBox="0 0 403 429" fill="none" xmlns="http://www.w3.org/2000/svg">
<path fill-rule="evenodd" clip-rule="evenodd" d="M333.6 394.8L333.586 394.81C302.721 417.553 259.846 428.8 205.2 428.8C143.532 428.8 92.1826 407.83 56.255 370.283C20.3351 332.744 0 278.815 0 213.2C0 88.1523 88.0394 0 204.4 0C266.122 0 315.287 22.6091 348.999 60.776C382.686 98.914 400.8 152.419 400.8 214V214.048C400.8 222.816 400.8 232.491 399.992 241.381L399.826 243.2H117.709C119.586 275.41 128.998 299.009 143.849 314.622C158.998 330.547 180.031 338.4 205.2 338.4C228.405 338.4 246.349 332.12 260.852 320.537C275.399 308.919 286.635 291.844 296.167 270L296.933 268.245L402.273 308.888L401.431 310.804C386.879 343.952 364.248 371.411 333.613 394.79L333.6 394.8ZM115.705 243.2C115.667 242.537 115.632 241.87 115.6 241.2H398C398.8 232.4 398.8 222.8 398.8 214C398.8 91.6 326.8 2 204.4 2C89.2 2 2 89.2 2 213.2C2 343.6 82.8 426.8 205.2 426.8C259.6 426.8 302 415.6 332.4 393.2C362.233 370.433 384.362 343.813 398.786 311.83C399.06 311.222 399.331 310.612 399.6 310L298 270.8C298 270.8 298 270.8 298 270.8C278.8 314.8 252.4 340.4 205.2 340.4C154.511 340.4 119.504 309.035 115.705 243.2ZM119.6 161.2H286C285.926 160.529 285.847 159.863 285.765 159.2C279.651 110.081 251.761 83.6 204.4 83.6C159.407 83.6 127.654 110.081 119.901 159.2C119.796 159.863 119.696 160.529 119.6 161.2ZM121.926 159.2H283.749C280.747 135.405 272.583 117.247 259.718 104.946C246.473 92.2812 228.013 85.6 204.4 85.6C182.008 85.6 163.11 92.2704 148.936 104.989C135.193 117.319 125.727 135.483 121.926 159.2Z" fill="#F0F0F0"/>
</svg>
