<svg width="345" height="426" viewBox="0 0 345 426" fill="none" xmlns="http://www.w3.org/2000/svg">
<path d="M0 369.6C0 402.6 22.1615 426 74.8698 426H228.802C288.698 426 333.021 392.4 333.021 333C333.021 283.8 291.693 242.4 228.802 242.4H100.026C79.6615 242.4 70.0781 241.8 70.0781 229.2C70.0781 219 76.6667 213 92.8385 208.2C108.411 214.8 129.375 218.4 155.13 218.4C225.208 218.4 277.318 178.2 284.505 114L285.104 108.6C288.698 78 292.891 73.8 312.057 73.8H345V9.00003H329.427C300.078 9.00003 286.901 19.8 282.109 63H256.354C241.979 21.6 198.854 0 146.745 0C76.6667 0 22.1615 45 22.1615 108C22.1615 136.8 34.1406 154.2 56.3021 170.4V197.4C26.9531 207 7.1875 224.4 7.1875 253.8C7.1875 274.8 20.3646 288.6 41.3281 294V321.6C17.9687 328.8 0 347.4 0 369.6ZM207.24 111.6C207.24 142.2 186.276 162.6 154.531 162.6C122.786 162.6 101.823 142.2 101.823 111.6C101.823 80.4 123.385 57.6 154.531 57.6C185.677 57.6 207.24 80.4 207.24 111.6ZM95.2344 364.2C78.4635 364.2 65.2865 354.6 65.2865 336C65.2865 324.6 73.0729 313.8 80.8594 309H212.031C238.385 309 249.167 319.8 249.167 336C249.167 353.4 238.984 364.2 212.031 364.2H95.2344Z" fill="#FF8A00"/>
</svg>
