<svg width="198" height="197" viewBox="0 0 198 197" fill="none" xmlns="http://www.w3.org/2000/svg">
<g filter="url(#filter0_d_3134_1291)">
<circle cx="98.7852" cy="94.501" r="68.5" fill="white"/>
</g>
<g clip-path="url(#clip0_3134_1291)">
<path d="M77.6776 58.9475C76.7216 59.5057 75.8044 59.7379 74.9261 59.6442C74.0477 59.5504 73.3172 59.1047 72.7342 58.316L74.5267 57.2694C74.7829 57.5677 75.1097 57.7289 75.5073 57.7529C75.9048 57.777 76.3253 57.6603 76.7727 57.396C77.8083 56.7912 78.1282 56.1503 77.7322 55.4732C77.5808 55.2143 77.3468 55.0814 77.0235 55.062C76.7036 55.0444 76.3523 55.1089 75.9819 55.2576C75.6081 55.4043 75.1885 55.5441 74.7196 55.6748C74.2507 55.8056 73.8027 55.8982 73.3757 55.9527C72.9487 56.0072 72.5193 55.9341 72.0846 55.7228C71.6498 55.5114 71.2795 55.1415 70.9717 54.6164C70.5159 53.8343 70.453 53.0601 70.7829 52.2939C71.1162 51.5296 71.7358 50.8771 72.6447 50.3472C73.6152 49.779 74.5071 49.5599 75.3096 49.6933C76.112 49.8266 76.7785 50.2327 77.3055 50.9095L75.513 51.9561C75.2867 51.7103 75.0101 51.5811 74.6779 51.5614C74.3457 51.5416 73.9931 51.6414 73.6093 51.8639C73.1838 52.1131 72.9114 52.3877 72.7867 52.6892C72.662 52.9906 72.6744 53.2725 72.8223 53.5295C72.9753 53.7938 73.2194 53.9412 73.5459 53.9714C73.8724 54.0016 74.2268 53.9479 74.6073 53.8137C74.9877 53.6796 75.4124 53.5471 75.8847 53.4183C76.3552 53.2929 76.805 53.1968 77.2286 53.1404C77.6541 53.0806 78.0799 53.1517 78.5046 53.3485C78.9328 53.5472 79.288 53.8953 79.581 54.3898C80.022 55.1412 80.0808 55.9311 79.759 56.7649C79.4337 57.5968 78.7423 58.3227 77.6776 58.9475Z" fill="#FF8A00"/>
<path d="M81.8775 56.4888L78.7271 47.3197L82.5266 46.0206C83.4701 45.6991 84.3419 45.7307 85.142 46.1153C85.9421 46.4999 86.502 47.1497 86.8164 48.0662C87.1307 48.9827 87.0896 49.8396 86.6915 50.6316C86.2933 51.4235 85.6259 51.9821 84.6805 52.3071L82.8525 52.9328L83.8436 55.817L81.8775 56.4888ZM82.2514 51.1645L83.8892 50.6059C84.3395 50.4514 84.6532 50.2085 84.8216 49.8768C84.9899 49.5452 85.0042 49.1652 84.8572 48.7418C84.7121 48.315 84.4699 48.0243 84.1323 47.8662C83.7947 47.7082 83.3981 47.7072 82.9478 47.8617L81.31 48.4203L82.2514 51.1645Z" fill="#FF8A00"/>
<path d="M89.9455 53.9118L88.6266 44.3083L95.1448 43.4176L95.4008 45.2718L90.9455 45.8821L91.2277 47.9355L95.4088 47.3644L95.6437 49.0761L91.4625 49.6473L91.7559 51.7791L96.3518 51.1512L96.6062 53L89.9455 53.9118Z" fill="#FF8A00"/>
<path d="M101.868 53.3465C100.467 53.2505 99.3903 52.7367 98.6285 51.8049C97.8667 50.873 97.54 49.625 97.6485 48.0609C97.757 46.4967 98.2481 45.3048 99.1288 44.4888C100.006 43.6709 101.148 43.3092 102.552 43.4072C103.712 43.4887 104.618 43.8366 105.275 44.4494C105.93 45.0657 106.355 45.8714 106.54 46.875L104.401 46.726C104.067 45.8211 103.404 45.3355 102.422 45.2661C101.666 45.2124 101.044 45.44 100.556 45.9435C100.068 46.447 99.7899 47.2011 99.7185 48.2037C99.6471 49.2064 99.8231 49.9884 100.237 50.5583C100.653 51.1247 101.237 51.4355 101.994 51.4857C102.982 51.5536 103.701 51.1633 104.156 50.3169L106.295 50.466C105.972 51.4342 105.443 52.1769 104.708 52.694C103.973 53.2111 103.028 53.4281 101.868 53.3465Z" fill="#FF8A00"/>
<path d="M107.053 53.9215L109.226 44.478L111.257 44.9469L109.084 54.3904L107.053 53.9215Z" fill="#FF8A00"/>
<path d="M109.684 54.2861L116.482 46.563L118.863 47.5126L118.499 57.7987L116.502 57.0054L116.587 55.1041L112.92 53.6434L111.679 55.0829L109.684 54.2861ZM114.248 52.1525L116.655 53.1118L116.833 49.2404L116.77 49.215L114.248 52.1525Z" fill="#FF8A00"/>
<path d="M118.828 58.158L124.063 50.0016L125.817 51.1254L121.591 57.7114L125.321 60.1037L124.314 61.676L118.828 58.158Z" fill="#FF8A00"/>
<path d="M126.941 63.8883L134.051 57.3011L136.782 60.2465C137.459 60.9786 137.783 61.7875 137.756 62.6751C137.73 63.5627 137.359 64.3379 136.651 64.9959C135.942 65.6538 135.141 65.963 134.254 65.9185C133.365 65.8774 132.584 65.49 131.905 64.7613L130.59 63.341L128.353 65.4114L126.941 63.8883ZM131.96 62.0765L133.138 63.3446C133.464 63.6952 133.81 63.8801 134.183 63.8997C134.556 63.9192 134.908 63.7787 135.238 63.4727C135.569 63.1667 135.737 62.8263 135.748 62.4532C135.755 62.0782 135.597 61.7164 135.273 61.3677L134.096 60.0995L131.96 62.0765Z" fill="#FF8A00"/>
<path d="M132.584 70.1842L140.886 65.1843L143.036 68.7447C143.543 69.5818 143.7 70.4074 143.51 71.2143C143.318 72.0248 142.812 72.6763 141.989 73.1723C141.605 73.4037 141.213 73.5586 140.819 73.6356C140.425 73.7126 140.09 73.7228 139.805 73.6659C139.524 73.6109 139.268 73.5338 139.034 73.4417C138.804 73.3515 138.631 73.2563 138.515 73.1616L138.338 73.0239L136.589 76.8229L135.374 74.8081L137.077 71.1914L136.507 70.2474L133.657 71.9634L132.584 70.1842ZM138.104 69.2871L139.104 70.945C139.305 71.2766 139.568 71.4885 139.894 71.577C140.22 71.6656 140.561 71.6043 140.911 71.3946C141.26 71.185 141.472 70.9134 141.545 70.5834C141.618 70.2534 141.556 69.9218 141.356 69.5867L140.359 67.9308L138.104 69.2871Z" fill="#FF8A00"/>
<path d="M136.817 77.8016L145.767 74.0815L146.567 76.0043L137.618 79.7244L136.817 77.8016Z" fill="#FF8A00"/>
<path d="M139.171 85.2123C138.839 83.8491 139.001 82.6658 139.657 81.6589C140.313 80.652 141.403 79.9645 142.929 79.5927C144.455 79.2209 145.739 79.3337 146.784 79.9206C147.832 80.5129 148.519 81.4897 148.854 82.8549C149.128 83.9841 149.074 84.9555 148.687 85.7674C148.301 86.5792 147.659 87.2237 146.76 87.7098L146.254 85.6283C147.013 85.0343 147.276 84.2584 147.043 83.3007C146.864 82.5664 146.46 82.0429 145.829 81.7285C145.198 81.4141 144.397 81.3764 143.421 81.617C142.444 81.8522 141.749 82.2558 141.334 82.8223C140.92 83.3888 140.801 84.0409 140.981 84.7753C141.214 85.733 141.805 86.3008 142.755 86.4787L143.261 88.5602C142.242 88.5424 141.374 88.265 140.656 87.7224C139.943 87.1783 139.445 86.3415 139.171 85.2123Z" fill="#FF8A00"/>
<path d="M140.303 90.2071L149.995 89.8749L150.224 96.4453L148.352 96.51L148.193 92.0168L146.119 92.088L146.266 96.3046L144.538 96.3624L144.39 92.1458L142.241 92.2211L142.403 96.8561L140.539 96.9211L140.303 90.2071Z" fill="#FF8A00"/>
<path d="M139.476 103.05C139.682 102.067 140.105 101.352 140.747 100.906C141.389 100.46 142.206 100.303 143.207 100.437L142.78 102.467C142.376 102.421 142.044 102.483 141.792 102.656C141.537 102.832 141.377 103.091 141.302 103.434C141.131 104.247 141.567 104.761 142.607 104.979L148.842 106.292L148.415 108.322L142.18 107.009C141.103 106.784 140.329 106.319 139.858 105.623C139.392 104.925 139.264 104.071 139.476 103.05Z" fill="#FF8A00"/>
<path d="M136.724 114.508C136.32 113.533 136.365 112.471 136.865 111.32C137.366 110.169 138.111 109.41 139.101 109.037C140.091 108.664 141.2 108.749 142.428 109.283L147.516 111.495L146.688 113.4L141.6 111.188C140.889 110.879 140.269 110.809 139.74 110.975C139.21 111.144 138.822 111.504 138.58 112.062C138.338 112.619 138.335 113.15 138.575 113.651C138.815 114.152 139.288 114.556 140.001 114.87L145.088 117.083L144.262 118.984L139.175 116.772C137.948 116.234 137.134 115.481 136.724 114.508Z" fill="#FF8A00"/>
<path d="M134.576 116.297L142.532 121.846L141.34 123.551L134.914 119.071L132.381 122.702L130.851 121.633L134.576 116.297Z" fill="#FF8A00"/>
<path d="M129.438 123.028L131.832 125.337L138.772 127.325L137.23 128.919L132.681 127.543L132.629 127.596L134.152 132.103L132.61 133.697L130.386 126.831L127.994 124.518L129.438 123.028Z" fill="#FF8A00"/>
<path d="M125.137 130.988L126.085 132.437L122.316 134.899L121.368 133.45L125.137 130.988Z" fill="#FF8A00"/>
<path d="M116.085 132.888L119.263 142.05L115.73 143.274C114.449 143.717 113.289 143.667 112.251 143.116C111.213 142.565 110.446 141.576 109.949 140.145C109.452 138.713 109.443 137.463 109.915 136.387C110.391 135.313 111.268 134.554 112.549 134.111L116.085 132.888ZM114.727 135.332L113.227 135.854C112.563 136.085 112.101 136.517 111.84 137.149C111.579 137.782 111.606 138.555 111.921 139.463C112.236 140.37 112.69 140.989 113.292 141.324C113.891 141.657 114.521 141.709 115.185 141.478L116.685 140.956L114.727 135.332Z" fill="#FF8A00"/>
<path d="M107.294 135.7L108.559 145.31L102.035 146.162L101.79 144.305L106.248 143.723L105.976 141.666L101.794 142.214L101.57 140.499L105.752 139.951L105.473 137.818L100.873 138.421L100.629 136.569L107.294 135.7Z" fill="#FF8A00"/>
<path d="M95.3794 136.197C96.7762 136.299 97.8527 136.822 98.6091 137.756C99.3636 138.692 99.6849 139.942 99.5675 141.506C99.4502 143.07 98.9522 144.258 98.068 145.072C97.1838 145.886 96.0425 146.239 94.6388 146.132C93.4768 146.045 92.5728 145.694 91.9197 145.074C91.2665 144.454 90.8491 143.643 90.6672 142.642L92.8038 142.803C93.1327 143.71 93.7908 144.197 94.7778 144.273C95.5318 144.331 96.1546 144.108 96.6463 143.607C97.138 143.105 97.423 142.355 97.4944 141.352C97.5658 140.35 97.4006 139.564 96.9899 138.996C96.5792 138.428 95.9924 138.116 95.2384 138.059C94.2549 137.984 93.532 138.372 93.068 139.218L90.9314 139.057C91.2617 138.092 91.7943 137.352 92.5307 136.84C93.2671 136.328 94.2174 136.11 95.3794 136.197Z" fill="#FF8A00"/>
<path d="M90.2844 135.726L87.5982 145.036L81.2778 143.212L81.7953 141.413L86.117 142.659L86.6914 140.665L82.6362 139.492L83.1149 137.829L87.1702 139.002L87.765 136.938L83.3067 135.652L83.8239 133.861L90.2844 135.726Z" fill="#FF8A00"/>
<path d="M82.7811 133.651L77.9839 142.07L75.3314 140.562L76.6704 133.593L76.6114 133.56L71.3007 138.266L68.6482 136.757L73.4453 128.338L75.2534 129.37L71.8612 135.326L71.9202 135.358L77.358 130.569L78.8611 131.425L77.5164 138.544L77.5754 138.576L80.9676 132.621L82.7811 133.651Z" fill="#FF8A00"/>
<path d="M72.4504 127.331L65.7344 134.32L62.4377 131.154C61.7455 130.491 61.3799 129.808 61.3408 129.105C61.3017 128.403 61.5742 127.749 62.1602 127.142C62.4773 126.81 62.8538 126.593 63.2791 126.492C63.7062 126.388 64.1132 126.395 64.5002 126.512C64.3352 126.097 64.293 125.664 64.3722 125.206C64.4514 124.749 64.6708 124.333 65.0375 123.952C65.6181 123.346 66.2597 123.048 66.9623 123.059C67.6649 123.07 68.3606 123.407 69.0528 124.07L72.4504 127.331ZM67.0169 129.981L65.4208 128.447C65.149 128.185 64.8708 128.051 64.591 128.051C64.3112 128.05 64.0479 128.177 63.8065 128.428C63.5651 128.679 63.4506 128.945 63.463 129.227C63.4754 129.509 63.6176 129.776 63.8928 130.04L65.4855 131.572L67.0169 129.981ZM69.7058 127.184L68.0088 125.554C67.7371 125.293 67.4569 125.162 67.179 125.158C66.8992 125.158 66.636 125.284 66.3926 125.539C66.1493 125.793 66.0348 126.06 66.0437 126.34C66.0527 126.62 66.1965 126.892 66.4735 127.152L68.1706 128.782L69.7058 127.184Z" fill="#FF8A00"/>
<path d="M66.2831 121.135L58.3122 126.651L54.567 121.242L56.1069 120.178L58.6665 123.873L60.3737 122.694L57.9702 119.225L59.3938 118.242L61.7972 121.711L63.5645 120.488L60.9261 116.674L62.4607 115.612L66.2831 121.135Z" fill="#FF8A00"/>
<path d="M61.9058 114.62L53.0079 118.468L51.3541 114.652C50.9665 113.754 50.9201 112.917 51.215 112.141C51.5098 111.364 52.1017 110.787 52.9838 110.405C53.3979 110.226 53.8054 110.125 54.2065 110.101C54.6076 110.077 54.9445 110.113 55.2137 110.207C55.4863 110.302 55.7302 110.409 55.9469 110.532C56.1636 110.655 56.3222 110.77 56.4243 110.88L56.5813 111.038L58.8251 107.506L59.762 109.666L57.5886 113.02L58.0269 114.031L61.0799 112.711L61.9058 114.62ZM56.3133 114.77L55.5443 112.995C55.3912 112.64 55.1561 112.394 54.844 112.264C54.532 112.133 54.1862 112.146 53.8135 112.307C53.4409 112.468 53.191 112.71 53.0764 113.026C52.9599 113.346 52.9791 113.681 53.1303 114.039L53.8993 115.814L56.3133 114.77Z" fill="#FF8A00"/>
<path d="M57.9643 104.199L56.118 104.463L51.8196 100.811C51.3618 100.412 50.9381 100.238 50.5502 100.287C49.7722 100.397 49.4501 100.91 49.5803 101.825C49.6367 102.208 49.7846 102.514 50.0203 102.743C50.2615 102.97 50.5704 103.09 50.949 103.099L51.2435 105.154C50.3308 105.173 49.5554 104.932 48.9188 104.439C48.2822 103.945 47.8867 103.16 47.7321 102.092C47.5682 100.943 47.7051 100.035 48.1463 99.37C48.5875 98.7054 49.2416 98.3109 50.1121 98.1884C50.9934 98.0628 51.8757 98.3797 52.7698 99.1361L55.7173 101.654L55.1006 97.3383L56.9503 97.0763L57.9643 104.199Z" fill="#FF8A00"/>
<path d="M56.119 89.4434C56.9287 90.2302 57.2953 91.2656 57.2293 92.5463C57.1634 93.8271 56.6853 94.8143 55.8001 95.515C54.9168 96.2123 53.6603 96.52 52.038 96.4332C50.4156 96.3464 49.1979 95.9086 48.3881 95.1219C47.5784 94.3351 47.2065 93.3013 47.2724 92.0205C47.3383 90.7397 47.8164 89.7526 48.7051 89.0538C49.5938 88.3549 50.8484 88.0507 52.4707 88.1375C54.0969 88.2173 55.3093 88.6567 56.119 89.4434ZM54.4908 93.886C55.0448 93.5178 55.3337 93.0403 55.3648 92.4485C55.3941 91.8602 55.1547 91.3501 54.6465 90.9271C54.1367 90.4987 53.3736 90.2607 52.361 90.206C51.3483 90.1514 50.5668 90.3091 50.0144 90.6827C49.4639 91.0529 49.1696 91.5319 49.1404 92.1203C49.1112 92.7086 49.347 93.2168 49.8587 93.6417C50.3704 94.0666 51.1301 94.3027 52.1427 94.3574C53.1553 94.412 53.9388 94.2508 54.4908 93.886Z" fill="#FF8A00"/>
<path d="M57.41 88.0822L55.5999 87.6218L53.0099 82.6162C52.7381 82.0747 52.4138 81.7526 52.0316 81.6512C51.2703 81.4593 50.7754 81.8103 50.5504 82.7062C50.4565 83.0832 50.4758 83.4185 50.6113 83.7228C50.7487 84.0236 50.9899 84.2506 51.3347 84.4036L50.8269 86.4162C49.9752 86.0845 49.35 85.5703 48.9477 84.8717C48.5455 84.1731 48.4793 83.2979 48.7418 82.2512C49.0269 81.1222 49.4974 80.3383 50.1589 79.8892C50.8184 79.4436 51.5737 79.3256 52.4243 79.5439C53.2838 79.7627 53.9827 80.3894 54.5226 81.4296L56.2929 84.8764L57.3605 80.6496L59.1706 81.11L57.41 88.0822Z" fill="#FF8A00"/>
<path d="M60.2468 78.7185L54.0722 76.0769L53.3147 77.8534L51.5929 77.1167L52.1347 75.8488C52.2803 75.5092 52.1832 75.2665 51.8434 75.1208L51.3309 74.9029L52.1484 72.9924L61.0661 76.8045L60.2468 78.7185Z" fill="#FF8A00"/>
<ellipse cx="63.4054" cy="64.2907" rx="2.01055" ry="2.01055" transform="rotate(-61.2621 63.4054 64.2907)" fill="#FF8A00"/>
<g clip-path="url(#clip1_3134_1291)">
<path d="M119.262 94.0025L121.192 88.9676C121.404 88.4122 121.239 87.7824 120.774 87.4057L116.589 84.0125L115.742 78.6861C115.649 78.0976 115.187 77.6384 114.598 77.5449L109.272 76.698L105.881 72.51C105.507 72.0453 104.864 71.8803 104.322 72.092L99.2847 74.0251L94.2498 72.0948C93.6915 71.8803 93.0673 72.0508 92.6906 72.5127L89.2973 76.7007L83.971 77.5476C83.3853 77.6411 82.9233 78.1031 82.8298 78.6888L81.9828 84.0152L77.7949 87.4085C77.3329 87.7824 77.1652 88.4122 77.3769 88.9676L79.3073 94.0025L77.3769 99.0374C77.1624 99.5929 77.3329 100.223 77.7949 100.597L81.9828 103.987L82.8298 109.313C82.9233 109.902 83.3825 110.364 83.971 110.457L89.2973 111.304L92.6906 115.49C93.0673 115.957 93.697 116.122 94.2525 115.908L99.2847 113.98L104.32 115.91C104.479 115.971 104.644 116.001 104.812 116.001C105.216 116.001 105.615 115.822 105.881 115.49L109.272 111.304L114.598 110.457C115.187 110.364 115.649 109.902 115.742 109.313L116.589 103.987L120.774 100.597C121.239 100.22 121.404 99.5929 121.192 99.0374L119.262 94.0025Z" fill="#FF8A00"/>
<path d="M95.1599 91.2533C92.8858 91.2533 91.0352 89.4027 91.0352 87.1286C91.0352 84.8545 92.8858 83.0039 95.1599 83.0039C97.434 83.0039 99.2846 84.8545 99.2846 87.1286C99.2846 89.4027 97.434 91.2533 95.1599 91.2533ZM95.1599 85.7537C94.4009 85.7537 93.785 86.3697 93.785 87.1286C93.785 87.8876 94.4009 88.5035 95.1599 88.5035C95.9188 88.5035 96.5348 87.8876 96.5348 87.1286C96.5348 86.3697 95.9188 85.7537 95.1599 85.7537Z" fill="#FAFAFA"/>
<path d="M103.41 105.002C101.136 105.002 99.2852 103.152 99.2852 100.878C99.2852 98.6036 101.136 96.7529 103.41 96.7529C105.684 96.7529 107.535 98.6036 107.535 100.878C107.535 103.152 105.684 105.002 103.41 105.002ZM103.41 99.5027C102.654 99.5027 102.035 100.121 102.035 100.878C102.035 101.634 102.654 102.253 103.41 102.253C104.166 102.253 104.785 101.634 104.785 100.878C104.785 100.121 104.166 99.5027 103.41 99.5027Z" fill="#FAFAFA"/>
<path d="M92.4088 105.002C92.1311 105.002 91.8534 104.919 91.6114 104.746C90.9927 104.304 90.8497 103.446 91.2924 102.827L105.041 83.5782C105.484 82.9595 106.342 82.8165 106.961 83.2592C107.58 83.6992 107.72 84.5599 107.28 85.1758L93.5308 104.425C93.2585 104.801 92.8378 105.002 92.4088 105.002Z" fill="#FAFAFA"/>
</g>
</g>
<defs>
<filter id="filter0_d_3134_1291" x="0.285156" y="0.000976562" width="197" height="197" filterUnits="userSpaceOnUse" color-interpolation-filters="sRGB">
<feFlood flood-opacity="0" result="BackgroundImageFix"/>
<feColorMatrix in="SourceAlpha" type="matrix" values="0 0 0 0 0 0 0 0 0 0 0 0 0 0 0 0 0 0 127 0" result="hardAlpha"/>
<feOffset dy="4"/>
<feGaussianBlur stdDeviation="15"/>
<feComposite in2="hardAlpha" operator="out"/>
<feColorMatrix type="matrix" values="0 0 0 0 0 0 0 0 0 0 0 0 0 0 0 0 0 0 0.05 0"/>
<feBlend mode="normal" in2="BackgroundImageFix" result="effect1_dropShadow_3134_1291"/>
<feBlend mode="normal" in="SourceGraphic" in2="effect1_dropShadow_3134_1291" result="shape"/>
</filter>
<clipPath id="clip0_3134_1291">
<rect width="102.881" height="102.881" fill="white" transform="translate(29 115.209) rotate(-61.2621)"/>
</clipPath>
<clipPath id="clip1_3134_1291">
<rect width="44" height="44" fill="white" transform="translate(77.2852 72.001)"/>
</clipPath>
</defs>
</svg>
