<svg width="648" height="171" viewBox="0 0 648 171" fill="none" xmlns="http://www.w3.org/2000/svg">
<path d="M240.938 53.035L241.898 52.7541L241.898 52.7541L240.938 53.035ZM261.938 53.035L262.902 53.2992L261.938 53.035ZM3.28059 74.2362C3.44548 73.7092 4.00644 73.4155 4.53354 73.5804L13.1231 76.2674C13.6502 76.4323 13.9438 76.9933 13.7789 77.5204C13.614 78.0475 13.0531 78.3411 12.526 78.1762L4.89082 75.7878L2.50237 83.4229C2.33748 83.95 1.77652 84.2436 1.24942 84.0787C0.722325 83.9138 0.428697 83.3529 0.593585 82.8258L3.28059 74.2362ZM647.106 1.02575C590.252 101.935 501.545 159.282 420.48 169.283C379.942 174.284 341.292 167.445 309.522 148.252C277.742 129.054 252.917 97.5353 239.978 53.3158L241.898 52.7541C254.708 96.5346 279.24 127.622 310.556 146.54C341.882 165.464 380.066 172.253 420.235 167.298C500.582 157.386 588.774 100.483 645.364 0.0440008L647.106 1.02575ZM239.978 53.3158C235.507 38.035 235.682 26.1837 238.288 18.0205C240.884 9.89337 245.982 5.24134 251.408 4.93481C256.887 4.62535 262.031 8.76695 264.627 16.7846C267.228 24.818 267.384 36.9438 262.902 53.2992L260.973 52.7707C265.396 36.6298 265.162 24.931 262.724 17.4007C260.281 9.85463 255.736 6.69352 251.521 6.93163C247.254 7.17267 242.656 10.9185 240.194 18.6289C237.743 26.3031 237.501 37.7289 241.898 52.7541L239.978 53.3158ZM262.902 53.2992C245.945 115.185 197.939 152.855 145.688 158.903C93.4118 164.954 37.0278 139.341 3.34902 74.9986L5.12095 74.0711C38.4417 137.729 94.058 162.866 145.458 156.917C196.882 150.964 244.228 113.885 260.973 52.7707L262.902 53.2992Z" fill="#FF8A00"/>
</svg>
