<svg width="71" height="50" viewBox="0 0 71 50" fill="none" xmlns="http://www.w3.org/2000/svg">
<g clip-path="url(#clip0_3149_1360)">
<path d="M19.1268 42.0474C15.3243 36.6271 13.0861 30.625 12.5487 23.9965C12.2384 20.168 12.6041 16.384 13.195 12.6092C13.7527 9.05131 11.882 5.43964 8.56706 4.07577C7.16538 3.49946 5.59934 3.30674 4.09239 3.01951C3.52544 2.91203 3.02128 3.25671 2.90678 3.8534C2.57437 5.5953 2.12376 7.33164 2.48757 9.13284C2.9234 11.2917 4.01114 13.0262 5.80618 14.2974C6.3916 14.7125 7.08228 14.5957 7.4664 14.075C7.86345 13.5395 7.76558 12.8909 7.2134 12.4165C7.03796 12.2664 6.84774 12.1348 6.67415 11.9829C4.87542 10.4041 4.22905 7.85422 5.0564 5.62125C8.78683 5.6546 11.4203 8.78817 10.8423 12.4573C10.5782 14.1436 10.375 15.841 10.1996 17.5403C10.0888 18.6021 10.0796 19.6732 10.0205 20.8462C8.89209 19.9067 7.72495 19.2952 6.38606 19.0283C4.76646 18.7059 3.18564 18.9616 1.59374 19.2637C0.934455 19.3897 0.336108 19.5157 0 20.1661C0 20.4441 0 20.7202 0 20.9982C0.140353 21.6968 0.275165 22.3954 0.422905 23.0922C1.1099 26.3313 3.00281 28.4883 6.16629 29.4779C6.88283 29.7021 7.42023 29.3926 7.63261 28.7255C7.84314 28.0621 7.56428 27.5173 6.87175 27.2449C6.61505 27.1449 6.34912 27.067 6.09612 26.9577C3.96497 26.0386 2.42109 23.5814 2.67963 21.4874C2.86985 21.454 3.07114 21.4188 3.27244 21.3836C6.99733 20.7221 9.67142 22.6011 10.3972 26.3388C10.7628 28.2159 11.1691 30.0876 11.6437 31.9406C11.9558 33.1544 12.4249 34.3256 12.846 35.582C12.6798 35.5486 12.5727 35.5171 12.4655 35.5078C11.352 35.4133 10.2236 35.165 9.12848 35.2651C7.08967 35.4522 5.46637 36.6864 3.82277 37.789C3.27982 38.154 3.21704 38.7711 3.59377 39.3938C4.09424 40.2239 4.57994 41.0689 5.16166 41.8398C6.81265 44.0265 9.03429 45.1235 11.7693 45.1235C12.7832 45.1235 13.3612 44.1858 12.8958 43.3631C12.6077 42.8535 12.1331 42.7701 11.5939 42.7627C9.2282 42.7312 7.11183 41.2524 6.25494 39.0454C7.58275 38.0614 9.01767 37.3961 10.7259 37.574C12.6687 37.7742 14.0685 38.7915 15.1784 40.3852C16.7851 42.6923 18.4804 44.9363 20.1683 47.186C20.6891 47.879 21.4278 47.9773 21.9652 47.5325C22.5414 47.0544 22.5248 46.3706 21.9449 45.6442C20.9938 44.4508 20.0003 43.2927 19.1268 42.0474Z" fill="#FF8A00"/>
<path d="M49.497 12.2178C48.4259 4.33665 40.5163 -1.31897 32.7562 0.269122C24.9888 1.85907 20.1152 8.85818 21.2972 16.7282C22.42 24.2017 29.927 29.7332 37.3657 28.5083C38.8247 28.2674 40.2411 27.7652 41.7351 27.3687C41.737 27.3798 41.7555 27.4687 41.7555 27.5595C41.7573 34.0083 41.7591 40.4589 41.7555 46.9076C41.7555 47.6377 41.5191 47.7878 40.8616 47.4784C39.3621 46.7742 37.857 46.0793 36.3777 45.3325C35.6741 44.9767 35.0684 44.9841 34.3611 45.3473C32.8874 46.1052 31.3749 46.7853 29.8735 47.4858C29.458 47.6803 29.0424 47.7952 29.0166 47.0948C29.0092 46.8872 28.9981 46.6797 28.9981 46.4703C28.9963 42.1711 29 37.8701 28.9944 33.5709C28.9926 32.6351 28.5457 32.094 27.8088 32.0922C27.059 32.0903 26.6417 32.6055 26.6398 33.5672C26.6361 38.0295 26.6269 42.4899 26.6417 46.9521C26.649 49.3982 28.6528 50.6564 30.8763 49.6279C32.2336 49.0016 33.5725 48.3308 34.9391 47.7211C35.1866 47.6099 35.5688 47.6118 35.8163 47.723C37.2032 48.3438 38.5606 49.0238 39.9401 49.6632C42.0694 50.649 44.1045 49.3685 44.1119 47.0207C44.1304 40.4552 44.1341 33.8897 44.1322 27.326C44.1322 26.4959 44.1119 25.6601 44.0177 24.8355C43.9346 24.1091 43.2735 23.7162 42.605 23.9423C42.3279 24.0368 42.0768 24.2203 41.8256 24.3815C39.2937 25.9992 36.5421 26.5811 33.5725 26.1493C26.9852 25.1894 22.4957 18.8704 23.6518 12.1826C24.7783 5.66346 31.3472 1.23087 37.7979 2.63551C45.1904 4.24399 49.2126 11.9584 46.3372 19.0112C45.9531 19.9526 46.1175 20.5956 46.8211 20.9014C47.5136 21.2034 48.1194 20.8606 48.5072 19.9489C49.5635 17.4658 49.8608 14.8918 49.497 12.2178Z" fill="#FF8A00"/>
<path d="M69.7061 19.3504C69.2536 19.267 68.8012 19.191 68.3487 19.1021C65.6746 18.5814 63.1686 18.8575 60.9784 20.655C60.9193 20.7031 60.8251 20.7106 60.9063 20.6828C60.5628 17.8123 60.2193 14.9512 59.8795 12.09C59.4677 8.60064 62.2305 5.55416 65.7356 5.63014C66.5666 8.13366 65.8279 10.6205 63.7651 12.2586C63.0135 12.8553 62.8602 13.4891 63.32 14.0895C63.7596 14.6621 64.4798 14.6806 65.2111 14.1247C66.3746 13.2408 67.2185 12.1104 67.8058 10.7687C68.8252 8.43756 68.3654 6.09526 67.839 3.76778C67.7024 3.16182 67.1447 2.93204 66.5223 3.02469C65.8168 3.13032 65.1169 3.26745 64.4115 3.37493C59.8906 4.07169 56.9137 8.16331 57.584 12.6978C57.85 14.5009 58.0734 16.315 58.2156 18.1311C58.9063 27.0036 56.5997 35.0498 51.475 42.2879C50.6089 43.5091 49.6227 44.645 48.6883 45.8162C48.3337 46.2609 48.258 46.7372 48.5553 47.2282C48.8378 47.6934 49.2903 47.8898 49.8018 47.7434C50.0899 47.66 50.3965 47.4562 50.5775 47.2153C52.162 45.1213 53.7169 43.0051 55.2885 40.9C55.7558 40.2736 56.175 39.5917 56.7308 39.0524C58.8601 36.9899 62.4447 37.0492 64.5426 39.1358C63.3828 41.2835 61.7429 42.716 59.1704 42.7605C58.2304 42.7771 57.7189 43.2089 57.7373 43.9668C57.7539 44.7136 58.2858 45.1435 59.2295 45.1194C61.7171 45.0546 63.7983 44.0854 65.3625 42.1434C66.068 41.2687 66.6386 40.2792 67.2185 39.31C67.6063 38.6633 67.4641 38.1185 66.8381 37.6867C66.1566 37.216 65.4493 36.7805 64.7383 36.3543C63.1021 35.3722 61.3422 34.9627 59.4437 35.261C58.9525 35.3388 58.4668 35.4463 57.9146 35.5538C57.9756 35.3685 58.0088 35.2406 58.0568 35.1202C59.1999 32.2794 59.8925 29.3182 60.4022 26.3106C61.0596 22.4395 64.3671 20.3844 68.1345 21.5296C68.1474 21.5889 68.177 21.6538 68.1733 21.7186C68.0569 24.2592 66.5389 26.3032 64.1492 27.1519C63.935 27.2279 63.7023 27.3038 63.5306 27.4447C63.0689 27.8246 62.9396 28.3138 63.1945 28.8697C63.4419 29.4127 64.0015 29.6628 64.6497 29.459C67.562 28.5473 69.4272 26.596 70.2176 23.6477C70.467 22.7137 70.5981 21.7464 70.7495 20.7902C70.8695 20.0379 70.454 19.4894 69.7061 19.3504Z" fill="#FF8A00"/>
<path d="M30.1481 11.1005C29.655 10.8226 29.149 10.8707 28.7575 11.2877C28.5618 11.4952 28.4269 11.7899 28.3457 12.0697C27.4629 15.1125 28.1573 17.7753 30.4953 19.8786C32.8019 21.9522 35.5258 22.3488 38.3458 21.1072C41.2305 19.8378 42.6414 17.4714 42.7688 14.3323C42.767 12.8739 42.3847 11.5304 41.5832 10.3315C40.139 8.16709 38.1113 7.01817 35.5037 6.94405C34.7687 6.92366 34.2682 7.35729 34.2128 8.00957C34.1574 8.66001 34.5895 9.16405 35.3098 9.28079C35.4464 9.30303 35.5849 9.30673 35.7216 9.31785C38.44 9.52355 40.4474 11.7269 40.3976 14.4472C40.3477 17.1509 38.2387 19.2838 35.5148 19.3838C32.8499 19.4802 30.5655 17.4418 30.39 14.7177C30.3439 14.0025 30.5489 13.2649 30.6781 12.5441C30.7852 11.94 30.7132 11.4211 30.1481 11.1005Z" fill="#FF8A00"/>
</g>
<defs>
<clipPath id="clip0_3149_1360">
<rect width="70.7692" height="50" fill="white"/>
</clipPath>
</defs>
</svg>
