<svg width="152" height="27" viewBox="0 0 152 27" fill="none" xmlns="http://www.w3.org/2000/svg">
<path d="M0.00249733 13.2865C-0.104565 21.4225 5.56972 26.4265 11.7079 26.3545C13.9562 26.3545 15.6335 25.7785 16.8112 24.6625C17.9889 23.5465 18.8454 22.1785 19.4521 20.6305H21.6647C20.5584 22.3945 19.9874 24.4465 19.9874 25.7785H24.8765V12.8185H11.4938V17.3545H19.5591C19.2023 19.5505 17.1324 21.8545 13.0997 21.8545C8.96001 21.8545 5.64109 18.6145 5.64109 13.2865C5.64109 7.85052 8.78157 4.53852 13.2425 4.53852C16.8469 4.53852 18.8811 6.48252 19.916 9.61452L25.0193 7.70652C23.6632 3.35052 19.7733 0.00251933 13.2425 0.00251933C5.85522 -0.141481 -0.140252 5.90652 0.00249733 13.2865Z" fill="#3E3733"/>
<path d="M29.9048 25.7785H48.7834V21.2425H35.3293V15.0505H45.5002V10.5865H35.3293V5.11452H48.7834V0.578519H29.9048V25.7785Z" fill="#3E3733"/>
<path d="M53.464 25.7785H58.8885V0.578519H53.464V25.7785Z" fill="#3E3733"/>
<path d="M63.3962 13.2865C63.2892 21.4225 68.9635 26.4265 75.1017 26.3545C77.35 26.3545 79.0273 25.7785 80.205 24.6625C81.3826 23.5465 82.2391 22.1785 82.8458 20.6305H85.0584C83.9521 22.3945 83.3811 24.4465 83.3811 25.7785H88.2703V12.8185H74.8876V17.3545H82.9529C82.596 19.5505 80.5261 21.8545 76.4935 21.8545C72.3538 21.8545 69.0348 18.6145 69.0348 13.2865C69.0348 7.85052 72.1753 4.53852 76.6362 4.53852C80.2407 4.53852 82.2748 6.48252 83.3098 9.61452L88.413 7.70652C87.0569 3.35052 83.167 0.00251933 76.6362 0.00251933C69.249 -0.141481 63.2535 5.90652 63.3962 13.2865Z" fill="#3E3733"/>
<path d="M93.2986 25.7785H112.177V21.2425H98.723V15.0505H108.894V10.5865H98.723V5.11452H112.177V0.578519H93.2986V25.7785Z" fill="#3E3733"/>
<path d="M116.858 25.7785H122.282V13.7545C122.282 9.68652 121.39 7.77852 119.891 4.93452L121.533 3.89052L134.487 25.7785H141.018V0.578519H135.594V10.0825C135.665 14.0425 136.022 14.9785 137.913 18.1825L136.307 19.2985L125.209 0.578519H116.858V25.7785Z" fill="#3E3733"/>
<path d="M146.112 25.7785H152V20.0905H146.112V25.7785Z" fill="#FF8A00"/>
</svg>
